<svg xmlns="http://www.w3.org/2000/svg" width="64" height="64" viewBox="0 0 64 64" role="img" aria-label="방탕">
  <path d="M36.6 15.8 43.5 18l2.2-6.4 2.2 6.4 6.2 2.6-6.2 2.4-2.4 6.3-2.2-6.3-6.7-2.5Z" fill="#FFFDF2" stroke="#050505" stroke-width="4" stroke-linejoin="round"/>
  <path d="M27.8 19.4c9.9-3.3 22.4 1.1 24.2 13.2 1.3 8.6-3.2 15.2-8.9 21.6-1.9-1.1-3.4-2.4-5.3-3.6-2.2 1.5-4.1 2.9-6.5 4.2-1.3-1.5-2.4-3-3.7-4.5-2.3 1-4.6 1.8-7.1 2.4-.6-1.6-1.2-3.2-1.8-4.8-2.2.5-4.3.9-6.5 1.1.3-5.1 3.8-8.3 7.1-12 3.1-3.5 5.8-7.1 7-11.8" fill="#FFFDF2"/>
  <path d="M27.8 19.4c9.9-3.3 22.4 1.1 24.2 13.2 1.3 8.6-3.2 15.2-8.9 21.6-1.9-1.1-3.4-2.4-5.3-3.6-2.2 1.5-4.1 2.9-6.5 4.2-1.3-1.5-2.4-3-3.7-4.5-2.3 1-4.6 1.8-7.1 2.4-.6-1.6-1.2-3.2-1.8-4.8-2.2.5-4.3.9-6.5 1.1.3-5.1 3.8-8.3 7.1-12 3.1-3.5 5.8-7.1 7-11.8" fill="none" stroke="#050505" stroke-width="4" stroke-linejoin="round" stroke-linecap="round"/>
  <path d="M33 31.2 43 33M31.2 36.2l10.6 2M28.8 41l9.8 2.1" stroke="#8BA561" stroke-width="3.2" stroke-linecap="round"/>
  <path d="m44 32.6 1.8 3.1 4.1-4.5M42.1 38.3l1.8 3.2 4-3.6" stroke="#8BA561" stroke-width="3.5" stroke-linecap="round" stroke-linejoin="round"/>
  <circle cx="37.4" cy="45.2" r="4.7" fill="#FBBF24" stroke="#E18A0A" stroke-width="2"/>
  <path d="M36.2 46.9c1.8.4 3.5-.4 4-2.1" stroke="#FFF176" stroke-width="2" stroke-linecap="round"/>
  <path d="M9.4 39.7 25 19.4l7 5-14.9 20.5 1.1 4.6-4.6 2.6-4.8-.1-1.3-4.6.8-4.7Z" fill="#FBBF24"/>
  <path d="M9.4 39.7 25 19.4l7 5-14.9 20.5 1.1 4.6-4.6 2.6-4.8-.1-1.3-4.6.8-4.7Z" fill="none" stroke="#050505" stroke-width="4" stroke-linejoin="round" stroke-linecap="round"/>
  <path d="M10.7 48 27.5 25" stroke="#C87916" stroke-width="3" stroke-linecap="round"/>
  <circle cx="27.2" cy="22.1" r="11.6" fill="#FBBF24" stroke="#050505" stroke-width="4"/>
  <circle cx="27.2" cy="22.1" r="5" fill="#050505"/>
  <path d="M31.5 13.1a10.4 10.4 0 0 1 18.1 6.9 7.6 7.6 0 0 1-3.1 5.8l-3.6-4.1a6.4 6.4 0 0 0 1.2-4.3 6.6 6.6 0 0 0-12.1-3.1Z" fill="#D8DAE8" stroke="#050505" stroke-width="4" stroke-linejoin="round" stroke-linecap="round"/>
  <path d="M34.4 12.3a8.7 8.7 0 0 1 9.9 2.1" stroke="#F8FAFC" stroke-width="3" stroke-linecap="round"/>
  <path d="M17.3 18.2c2.8-4 7.2-5.5 11.3-5.2" stroke="#FFF176" stroke-width="3" stroke-linecap="round"/>
</svg>
