<svg width="1080" height="1080" viewBox="0 0 1080 1080" xmlns="http://www.w3.org/2000/svg">
    <rect width="1080" height="1080" rx="220" fill="#fff2e8"/>
    <circle cx="540" cy="540" r="370" fill="#ffc48f" opacity="0.28"/>
    <circle cx="540" cy="540" r="330" fill="#ffffff" opacity="0.55"/>
    <ellipse cx="540" cy="902" rx="220" ry="54" fill="#31233b" opacity="0.10"/>
    
        <ellipse cx="420" cy="405" rx="58" ry="72" fill="#ff9f43" />
        <ellipse cx="660" cy="405" rx="58" ry="72" fill="#ff9f43" />
        <ellipse cx="420" cy="405" rx="28" ry="34" fill="#fff2d7" />
        <ellipse cx="660" cy="405" rx="28" ry="34" fill="#fff2d7" />
        
    <ellipse cx="540" cy="575" rx="190" ry="170" fill="#ff9f43" />
    <ellipse cx="540" cy="700" rx="130" ry="110" fill="#ef6d22" opacity="0.95"/>
    <ellipse cx="540" cy="610" rx="92" ry="72" fill="#fff2d7" />
    <circle cx="485" cy="555" r="20" fill="#1f2430" />
    <circle cx="595" cy="555" r="20" fill="#1f2430" />
    <circle cx="478" cy="548" r="6" fill="#ffffff" opacity="0.92"/>
    <circle cx="588" cy="548" r="6" fill="#ffffff" opacity="0.92"/>
    <ellipse cx="540" cy="600" rx="26" ry="18" fill="#473228" />
    <path d="M520 625 Q540 645 560 625" stroke="#473228" stroke-width="10" stroke-linecap="round" fill="none"/>
    <circle cx="455" cy="612" r="18" fill="#ffb3c7" opacity="0.8"/>
    <circle cx="625" cy="612" r="18" fill="#ffb3c7" opacity="0.8"/>
  
        <path d="M410 480 L455 525 L420 535 Z" fill="#47240f" />
        <path d="M670 480 L625 525 L660 535 Z" fill="#47240f" />
        <path d="M500 445 L470 525 L500 535 Z" fill="#47240f" />
        <path d="M580 445 L610 525 L580 535 Z" fill="#47240f" />
        <path d="M540 440 L528 520 L552 520 Z" fill="#47240f" />
        <path d="M432 706 C476 668 510 668 540 710 C500 736 462 740 432 706" fill="#6f7cff" />
      
    <path d="M360 858 C428 816 508 800 540 802 C590 804 676 820 734 858 L710 920 C662 888 586 874 540 874 C492 874 416 888 372 920 Z" fill="#6f7cff" opacity="0.95"/>
    <circle cx="446" cy="848" r="22" fill="#ffffff" opacity="0.18"/>
    <circle cx="640" cy="834" r="16" fill="#ffffff" opacity="0.12"/>
  </svg>
