<svg width="1080" height="1080" viewBox="0 0 1080 1080" xmlns="http://www.w3.org/2000/svg">
    <rect width="1080" height="1080" rx="220" fill="#ebfff2"/>
    <circle cx="540" cy="540" r="370" fill="#9be1b1" opacity="0.28"/>
    <circle cx="540" cy="540" r="330" fill="#ffffff" opacity="0.55"/>
    <ellipse cx="540" cy="902" rx="220" ry="54" fill="#31233b" opacity="0.10"/>
    
        <circle cx="410" cy="420" r="68" fill="#7a4c2d" />
        <circle cx="670" cy="420" r="68" fill="#7a4c2d" />
        <circle cx="410" cy="420" r="34" fill="#eed1b9" />
        <circle cx="670" cy="420" r="34" fill="#eed1b9" />
        
    <ellipse cx="540" cy="575" rx="190" ry="170" fill="#a46a43" />
    <ellipse cx="540" cy="700" rx="130" ry="110" fill="#7a4c2d" opacity="0.95"/>
    <ellipse cx="540" cy="610" rx="92" ry="72" fill="#eed1b9" />
    <circle cx="485" cy="555" r="20" fill="#1f2430" />
    <circle cx="595" cy="555" r="20" fill="#1f2430" />
    <circle cx="478" cy="548" r="6" fill="#ffffff" opacity="0.92"/>
    <circle cx="588" cy="548" r="6" fill="#ffffff" opacity="0.92"/>
    <ellipse cx="540" cy="600" rx="26" ry="18" fill="#473228" />
    <path d="M520 625 Q540 645 560 625" stroke="#473228" stroke-width="10" stroke-linecap="round" fill="none"/>
    <circle cx="455" cy="612" r="18" fill="#ffb3c7" opacity="0.8"/>
    <circle cx="625" cy="612" r="18" fill="#ffb3c7" opacity="0.8"/>
  
        <path d="M420 710 C470 664 514 664 540 712 C495 743 455 744 420 710" fill="#3fae78" />
      
    <path d="M360 858 C428 816 508 800 540 802 C590 804 676 820 734 858 L710 920 C662 888 586 874 540 874 C492 874 416 888 372 920 Z" fill="#3fae78" opacity="0.95"/>
    <circle cx="446" cy="848" r="22" fill="#ffffff" opacity="0.18"/>
    <circle cx="640" cy="834" r="16" fill="#ffffff" opacity="0.12"/>
  </svg>
