<svg width="1080" height="1080" viewBox="0 0 1080 1080" xmlns="http://www.w3.org/2000/svg">
    <rect width="1080" height="1080" rx="220" fill="#fff0f6"/>
    <circle cx="540" cy="540" r="370" fill="#ffbdd8" opacity="0.28"/>
    <circle cx="540" cy="540" r="330" fill="#ffffff" opacity="0.55"/>
    <ellipse cx="540" cy="902" rx="220" ry="54" fill="#31233b" opacity="0.10"/>
    
        <path d="M385 490 L420 350 L500 470 Z" fill="#8f7cf7" />
        <path d="M695 490 L660 350 L580 470 Z" fill="#8f7cf7" />
        <path d="M420 448 L440 382 L484 450 Z" fill="#fce7f3" />
        <path d="M660 448 L640 382 L596 450 Z" fill="#fce7f3" />
        
    <ellipse cx="540" cy="575" rx="190" ry="170" fill="#8f7cf7" />
    <ellipse cx="540" cy="700" rx="130" ry="110" fill="#6756c7" opacity="0.95"/>
    <ellipse cx="540" cy="610" rx="92" ry="72" fill="#fce7f3" />
    <circle cx="485" cy="555" r="20" fill="#1f2430" />
    <circle cx="595" cy="555" r="20" fill="#1f2430" />
    <circle cx="478" cy="548" r="6" fill="#ffffff" opacity="0.92"/>
    <circle cx="588" cy="548" r="6" fill="#ffffff" opacity="0.92"/>
    <ellipse cx="540" cy="600" rx="26" ry="18" fill="#473228" />
    <path d="M520 625 Q540 645 560 625" stroke="#473228" stroke-width="10" stroke-linecap="round" fill="none"/>
    <circle cx="455" cy="612" r="18" fill="#ffb3c7" opacity="0.8"/>
    <circle cx="625" cy="612" r="18" fill="#ffb3c7" opacity="0.8"/>
  
        <path d="M440 600 L355 582" stroke="#473228" stroke-width="8" stroke-linecap="round"/>
        <path d="M440 626 L348 626" stroke="#473228" stroke-width="8" stroke-linecap="round"/>
        <path d="M640 600 L725 582" stroke="#473228" stroke-width="8" stroke-linecap="round"/>
        <path d="M640 626 L732 626" stroke="#473228" stroke-width="8" stroke-linecap="round"/>
        <path d="M430 708 C474 668 512 668 540 712 C500 739 462 742 430 708" fill="#ff8db8" />
      
    <path d="M360 858 C428 816 508 800 540 802 C590 804 676 820 734 858 L710 920 C662 888 586 874 540 874 C492 874 416 888 372 920 Z" fill="#ff8db8" opacity="0.95"/>
    <circle cx="446" cy="848" r="22" fill="#ffffff" opacity="0.18"/>
    <circle cx="640" cy="834" r="16" fill="#ffffff" opacity="0.12"/>
  </svg>
