<svg width="1080" height="1080" viewBox="0 0 1080 1080" xmlns="http://www.w3.org/2000/svg">
    <rect width="1080" height="1080" rx="220" fill="#fffde9"/>
    <circle cx="540" cy="540" r="370" fill="#eee08f" opacity="0.28"/>
    <circle cx="540" cy="540" r="330" fill="#ffffff" opacity="0.55"/>
    <ellipse cx="540" cy="902" rx="220" ry="54" fill="#31233b" opacity="0.10"/>
    
        <ellipse cx="540" cy="565" rx="180" ry="190" fill="#b78455" />
        <ellipse cx="540" cy="710" rx="140" ry="100" fill="#8e613b" />
        <circle cx="465" cy="550" r="56" fill="#fffaf0" />
        <circle cx="615" cy="550" r="56" fill="#fffaf0" />
        <circle cx="465" cy="550" r="26" fill="#1f2430" />
        <circle cx="615" cy="550" r="26" fill="#1f2430" />
        <circle cx="455" cy="540" r="8" fill="#ffffff" opacity="0.92"/>
        <circle cx="605" cy="540" r="8" fill="#ffffff" opacity="0.92"/>
        <path d="M540 592 L508 642 L572 642 Z" fill="#f3a43b" />
        <ellipse cx="540" cy="690" rx="86" ry="76" fill="#fff3c4" opacity="0.95"/>
        <path d="M420 475 C445 430 480 422 505 452 C474 462 448 472 420 475" fill="#8e613b" />
        <path d="M660 475 C635 430 600 422 575 452 C606 462 632 472 660 475" fill="#8e613b" />
        <path d="M442 714 C478 674 510 674 540 716 C500 742 468 744 442 714" fill="#5d8a3d" />
      
    <path d="M360 858 C428 816 508 800 540 802 C590 804 676 820 734 858 L710 920 C662 888 586 874 540 874 C492 874 416 888 372 920 Z" fill="#5d8a3d" opacity="0.95"/>
    <circle cx="446" cy="848" r="22" fill="#ffffff" opacity="0.18"/>
    <circle cx="640" cy="834" r="16" fill="#ffffff" opacity="0.12"/>
  </svg>
